<?xml version="1.0"?>
<svg xmlns="http://www.w3.org/2000/svg" xmlns:xlink="http://www.w3.org/1999/xlink" version="1.1" id="Capa_1" x="0px" y="0px" viewBox="0 0 227.46 227.46" style="enable-background:new 0 0 227.46 227.46;" xml:space="preserve" width="512px" height="512px" class=""><g><path d="M123.945,83.452c2.716-1.517,5.766-2.317,8.821-2.317c5.111,0,10.014,2.178,13.447,5.974  c1.427,1.58,3.466,2.486,5.594,2.486c2.129,0,4.168-0.906,5.592-2.485c3.433-3.797,8.334-5.975,13.449-5.975  c5.434,0,10.535,2.41,13.997,6.613c1.438,1.745,3.559,2.746,5.819,2.746h1.253c4.157,0,7.54-3.383,7.54-7.54  c0-0.132-0.006-0.266-0.013-0.397c-0.11-20.624-8.991-39.867-25.011-54.196C160.75,16.128,143.315,8.651,123.917,6.677  C122.19,2.661,118.25,0,113.729,0c-4.519,0-8.459,2.66-10.188,6.674c-19.406,1.975-36.843,9.451-50.528,21.688  C36.885,42.785,28.002,62.173,28.002,82.954c0,4.157,3.382,7.54,7.539,7.54h1.241c2.261,0,4.382-1.001,5.82-2.746  c3.461-4.203,8.563-6.613,13.999-6.613c5.113,0,10.015,2.178,13.447,5.974c1.427,1.58,3.466,2.486,5.594,2.486  c2.128,0,4.167-0.906,5.593-2.485c3.432-3.797,8.333-5.975,13.448-5.975c3.056,0,6.105,0.801,8.821,2.317l0.219,0.122v21.634H79.49  c-9.195,0-19.518,6.92-23.009,15.427l-6.218,15.144l-4.126-1.137c-1.124-0.31-2.247-0.467-3.337-0.467  c-5.486,0-9.469,3.936-9.469,9.357c0,5.352,3.906,9.858,9.2,11.211c-2.903,8.017-5.159,20.033-5.159,27.929v32.287  c0,6.893,5.607,12.5,12.5,12.5h4.583c6.892,0,12.5-5.607,12.5-12.5v-6.039h93.435v6.039c0,6.893,5.607,12.5,12.5,12.5h4.585  c6.893,0,12.5-5.607,12.5-12.5v-32.287c0-7.888-2.252-19.889-5.15-27.904c5.346-1.319,9.303-5.85,9.303-11.235  c0-5.422-3.981-9.357-9.468-9.357c-1.09,0-2.213,0.157-3.337,0.467l-4.229,1.165l-6.229-15.173  c-3.491-8.507-13.814-15.427-23.009-15.427h-24.123V83.57L123.945,83.452z M84.974,187.026c0,2.75-2.25,5-5,5H59.236  c-2.75,0-5-2.25-5-5v-8.271c0-2.75,2.25-5,5-5h20.738c2.75,0,5,2.25,5,5V187.026z M172.885,178.755v8.271c0,2.75-2.25,5-5,5h-20.736  c-2.75,0-5-2.25-5-5v-8.271c0-2.75,2.25-5,5-5h20.736C170.635,173.755,172.885,176.005,172.885,178.755z M159.153,122.021  l10.162,24.754c2.089,5.088-0.702,9.251-6.202,9.251H64.236c-5.5,0-8.291-4.163-6.202-9.251l10.162-24.754  c2.088-5.088,8.297-9.251,13.797-9.251h63.363C150.856,112.771,157.065,116.934,159.153,122.021z" data-original="#000000" class="active-path" data-old_color="#002DFF" fill="#1e5799"/></g> </svg>
